<svg xmlns="http://www.w3.org/2000/svg" viewBox="0 0 100 100" fill-rule="evenodd"><g class="t-group-origins"><path d="M42.5 79H15V36h65v5.5a1.5 1.5 0 0 0 3 0v-21a1.5 1.5 0 0 0-1.5-1.5h-68a1.5 1.5 0 0 0-1.5 1.5v60a1.5 1.5 0 0 0 1.5 1.5h29a1.5 1.5 0 0 0 0-3ZM80 22v11H15V22Z" stroke-width="0" stroke="#306ef2" fill="#306ef2" stroke-width-old="0"></path><path d="M20.5 29h5a1.5 1.5 0 0 0 0-3h-5a1.5 1.5 0 0 0 0 3Zm11 0h5a1.5 1.5 0 0 0 0-3h-5a1.5 1.5 0 0 0 0 3ZM67 57a10 10 0 1 0 10 10 10 10 0 0 0-10-10Zm0 17a7 7 0 1 1 7-7 7 7 0 0 1-7 7Z" stroke-width="0" stroke="#306ef2" fill="#306ef2" stroke-width-old="0"></path><path d="M89.72 61.65 84 60.78a18.25 18.25 0 0 0-1.08-2.61l3.44-4.67a1.5 1.5 0 0 0-.15-2l-4.76-4.76a1.5 1.5 0 0 0-2-.15l-4.65 3.43A18.33 18.33 0 0 0 72.21 49l-.86-5.7a1.5 1.5 0 0 0-1.48-1.3h-6.74a1.5 1.5 0 0 0-1.48 1.28L60.79 49a18.33 18.33 0 0 0-2.63 1.09l-4.65-3.43a1.5 1.5 0 0 0-2 .15l-4.76 4.76a1.5 1.5 0 0 0-.15 2l3.44 4.67A18.25 18.25 0 0 0 49 60.78l-5.74.87A1.5 1.5 0 0 0 42 63.13v6.74a1.5 1.5 0 0 0 1.28 1.48l5.77.87a18.17 18.17 0 0 0 1.07 2.56l-3.47 4.7a1.5 1.5 0 0 0 .15 2l4.76 4.76a1.5 1.5 0 0 0 2 .15l4.72-3.48a18.27 18.27 0 0 0 2.54 1.05l.88 5.8A1.5 1.5 0 0 0 63.13 91h6.74a1.5 1.5 0 0 0 1.48-1.28l.88-5.8a18.28 18.28 0 0 0 2.54-1.05l4.72 3.48a1.5 1.5 0 0 0 2-.15l4.76-4.76a1.5 1.5 0 0 0 .15-2l-3.47-4.7A18.17 18.17 0 0 0 84 72.22l5.77-.87A1.5 1.5 0 0 0 91 69.87v-6.74a1.5 1.5 0 0 0-1.28-1.48ZM88 68.58l-5.43.82a1.5 1.5 0 0 0-1.22 1.09 15.32 15.32 0 0 1-1.53 3.67 1.5 1.5 0 0 0 .09 1.64l3.27 4.43-2.94 2.94-4.45-3.28a1.5 1.5 0 0 0-1.64-.09 15.27 15.27 0 0 1-3.65 1.51 1.5 1.5 0 0 0-1.09 1.22L68.58 88h-4.16l-.83-5.47a1.5 1.5 0 0 0-1.09-1.22 15.28 15.28 0 0 1-3.65-1.51 1.5 1.5 0 0 0-1.64.09l-4.45 3.28-2.94-2.94 3.28-4.43a1.5 1.5 0 0 0 .09-1.64 15.32 15.32 0 0 1-1.53-3.67 1.5 1.5 0 0 0-1.22-1.09L45 68.58v-4.16l5.41-.82a1.5 1.5 0 0 0 1.23-1.1 15.27 15.27 0 0 1 1.53-3.71 1.5 1.5 0 0 0-.09-1.64l-3.24-4.39 2.94-2.94 4.38 3.23a1.5 1.5 0 0 0 1.64.09 15.29 15.29 0 0 1 3.73-1.55 1.5 1.5 0 0 0 1.1-1.23l.79-5.36h4.16l.81 5.37a1.5 1.5 0 0 0 1.1 1.23 15.29 15.29 0 0 1 3.73 1.55 1.49 1.49 0 0 0 1.64-.09l4.38-3.23 2.94 2.94-3.24 4.39a1.5 1.5 0 0 0-.09 1.64 15.27 15.27 0 0 1 1.53 3.71 1.5 1.5 0 0 0 1.23 1.1l5.41.82Z" stroke-width="0" stroke="#306ef2" fill="#306ef2" stroke-width-old="0"></path></g></svg>
